<svg width="24" height="24" viewBox="0 0 24 24" fill="none" xmlns="http://www.w3.org/2000/svg">
<path fill-rule="evenodd" clip-rule="evenodd" d="M12.6139 1.21071C12.2528 0.929845 11.7472 0.929845 11.3861 1.21071L2.38606 8.21071C2.14247 8.40017 2 8.69147 2 9.00006V20.0001C2 20.7957 2.31607 21.5588 2.87868 22.1214C3.44129 22.684 4.20435 23.0001 5 23.0001H8.5V21.0001H5C4.73478 21.0001 4.48043 20.8947 4.29289 20.7072C4.10536 20.5196 4 20.2653 4 20.0001V9.48915L12 3.26692L20 9.48915V20.0001C20 20.2653 19.8946 20.5196 19.7071 20.7072C19.5196 20.8947 19.2652 21.0001 19 21.0001H15.5V23.0001H19C19.7957 23.0001 20.5587 22.684 21.1213 22.1214C21.6839 21.5588 22 20.7957 22 20.0001V9.00006C22 8.69147 21.8575 8.40017 21.6139 8.21071L12.6139 1.21071ZM14.5 23.0001V21.0001H9.5V23.0001H14.5Z" fill="#7D7D7D"/>
<path fill-rule="evenodd" clip-rule="evenodd" d="M8 21.75H4.5L3 20.25V9L12 1.875L21 9V20.25L19.875 21.75H16V12C16 11.4477 15.5523 11 15 11H9C8.44772 11 8 11.4477 8 12V21.75ZM10 21.75H14V13H10V21.75Z" fill="#7D7D7D"/>
<path d="M4.5 21.75L4.14645 22.1036L4.29289 22.25H4.5V21.75ZM8 21.75V22.25H8.5V21.75H8ZM3 20.25H2.5V20.4571L2.64645 20.6036L3 20.25ZM3 9L2.68965 8.60798L2.5 8.75812V9H3ZM12 1.875L12.3104 1.48298L12 1.23728L11.6896 1.48298L12 1.875ZM21 9H21.5V8.75812L21.3104 8.60798L21 9ZM21 20.25L21.4 20.55L21.5 20.4167V20.25H21ZM19.875 21.75V22.25H20.125L20.275 22.05L19.875 21.75ZM16 21.75H15.5V22.25H16V21.75ZM10 21.75H9.5V22.25H10V21.75ZM14 21.75V22.25H14.5V21.75H14ZM14 13H14.5V12.5H14V13ZM10 13V12.5H9.5V13H10ZM4.5 22.25H8V21.25H4.5V22.25ZM2.64645 20.6036L4.14645 22.1036L4.85355 21.3964L3.35355 19.8964L2.64645 20.6036ZM2.5 9V20.25H3.5V9H2.5ZM11.6896 1.48298L2.68965 8.60798L3.31035 9.39202L12.3104 2.26702L11.6896 1.48298ZM21.3104 8.60798L12.3104 1.48298L11.6896 2.26702L20.6896 9.39202L21.3104 8.60798ZM21.5 20.25V9H20.5V20.25H21.5ZM20.275 22.05L21.4 20.55L20.6 19.95L19.475 21.45L20.275 22.05ZM16 22.25H19.875V21.25H16V22.25ZM15.5 12V21.75H16.5V12H15.5ZM15 11.5C15.2761 11.5 15.5 11.7239 15.5 12H16.5C16.5 11.1716 15.8284 10.5 15 10.5V11.5ZM9 11.5H15V10.5H9V11.5ZM8.5 12C8.5 11.7239 8.72386 11.5 9 11.5V10.5C8.17157 10.5 7.5 11.1716 7.5 12H8.5ZM8.5 21.75V12H7.5V21.75H8.5ZM10 22.25H14V21.25H10V22.25ZM14.5 21.75V13H13.5V21.75H14.5ZM14 12.5H10V13.5H14V12.5ZM9.5 13V21.75H10.5V13H9.5Z" fill="#7D7D7D"/>
</svg>
