<svg width="13" height="18" viewBox="0 0 13 18" fill="none" xmlns="http://www.w3.org/2000/svg">
<path fill-rule="evenodd" clip-rule="evenodd" d="M0 6.3C0 2.817 2.817 0 6.3 0C9.783 0 12.6 2.817 12.6 6.3C12.6 11.025 6.3 18 6.3 18C6.3 18 0 11.025 0 6.3ZM6.29986 1.80006C3.81586 1.80006 1.79986 3.81606 1.79986 6.30006C1.79986 8.86506 4.42786 12.7891 6.29986 15.1921C8.20786 12.7711 10.7999 8.89206 10.7999 6.30006C10.7999 3.81606 8.78386 1.80006 6.29986 1.80006Z" fill="#7D7D7D"/>
<path fill-rule="evenodd" clip-rule="evenodd" d="M6.375 16.875L1.5 9V3L6 1.5L8.625 1.875L10.125 3L10.875 4.5V6.375L10.125 11.625L7.125 15L6.375 16.875ZM4.04993 6.29993C4.04993 5.05729 5.05729 4.04993 6.29993 4.04993C7.10377 4.04993 7.84656 4.47877 8.24848 5.17493C8.65041 5.87108 8.65041 6.72877 8.24848 7.42493C7.84656 8.12108 7.10377 8.54993 6.29993 8.54993C5.05729 8.54993 4.04993 7.54257 4.04993 6.29993Z" fill="#7D7D7D"/>
</svg>
