<svg width="18" height="18" viewBox="0 0 18 18" fill="none" xmlns="http://www.w3.org/2000/svg">
<path d="M7.84794 0.87311C8.21113 -0.291036 9.78857 -0.291036 10.1505 0.87311L11.4459 5.03421C11.525 5.28762 11.6789 5.50843 11.8854 5.66507C12.092 5.82172 12.3407 5.90617 12.596 5.90637H16.7872C17.9603 5.90637 18.4469 7.47373 17.499 8.19421L14.1093 10.7652C13.9023 10.922 13.7482 11.1431 13.669 11.397C13.5899 11.6509 13.5897 11.9244 13.6686 12.1783L14.964 16.3394C15.3272 17.5036 14.05 18.4731 13.0996 17.7526L9.70988 15.1816C9.50311 15.0249 9.25415 14.9405 8.99864 14.9405C8.74312 14.9405 8.49416 15.0249 8.28739 15.1816L4.89765 17.7526C3.94853 18.4731 2.67253 17.5036 3.03451 16.3394L4.32987 12.1783C4.40877 11.9244 4.40863 11.6509 4.32947 11.397C4.2503 11.1431 4.09618 10.922 3.8892 10.7652L0.500674 8.19548C-0.447243 7.47499 0.0406381 5.90763 1.21252 5.90763H5.40248C5.65798 5.9077 5.90695 5.82337 6.11375 5.66671C6.32055 5.51005 6.47458 5.28909 6.55378 5.03547L7.84915 0.874373L7.84794 0.87311Z" fill="#7D7D7D"/>
</svg>
