<svg width="414" height="664" viewBox="0 0 414 664" fill="none" xmlns="http://www.w3.org/2000/svg">
<path d="M462.405 259.964L459.961 255.775L416.152 281.781C409.869 276.196 386.481 255.6 384.561 254.029C382.466 252.458 330.454 218.074 322.076 212.489C338.483 188.228 339.181 157.859 339.181 156.288V155.939V155.59C338.832 154.019 328.709 116.144 314.222 99.912C310.382 95.723 309.858 85.5998 312.302 71.4622L350.7 76.8729L456.82 107.592L459.089 99.5629L352.446 69.0187L313.698 63.4335C319.458 39.3472 330.803 15.0864 334.294 13.341C342.323 9.85024 392.59 -19.9958 394.684 -21.2176L392.24 -25.4065C391.891 -25.0574 340.228 5.48678 332.548 8.97755C325.916 11.7702 314.222 40.7435 308.986 62.9099L301.83 61.8626C307.589 37.6018 319.109 12.9919 322.6 11.2465C330.628 7.75578 380.896 -22.0903 382.99 -23.312L380.546 -27.5009C380.023 -27.1519 328.36 3.56686 320.68 6.88309C314.047 9.6757 302.179 39.1727 297.117 61.1645L272.682 57.6737L233.585 71.4622L194.314 69.7169L171.101 54.0084C157.312 44.5834 141.429 33.9365 125.546 23.2897L140.033 13.341L199.027 -75.6735L196.758 -94L188.38 -92.9528L190.125 -77.7679L133.749 7.4067L118.041 18.4026C81.0389 -6.73089 46.8294 -30.119 44.2113 -32.5625C44.2113 -32.5625 44.5604 -32.2135 44.7349 -31.8644L37.4043 -27.5009C38.1025 -26.2792 38.8006 -25.2319 102.856 18.4026C105.823 20.3225 108.79 22.417 111.758 24.3369L67.5994 81.4109L17.8561 111.955C11.3981 105.846 5.11477 100.261 -0.295915 95.374C-2.91399 92.9304 -5.35753 90.6614 -7.80106 88.567L38.4516 48.4232L38.6261 48.2486L60.0943 16.6572L43.3386 3.7414L40.3715 7.58124L53.6364 17.5299L43.5132 32.5402L33.5645 19.6244L29.7246 22.5915L40.546 36.7291L34.9608 44.9324L33.2154 46.3287L19.4269 23.2897L15.5871 25.9078L29.7246 49.645L-11.2918 85.2507C-15.3062 81.4109 -18.2733 78.6183 -19.4951 77.0475C-28.0475 65.877 -46.1995 33.762 -46.5485 33.4129L-55.9736 38.8236C-55.2754 40.2199 -37.1235 72.1604 -27.873 83.6799C-25.2549 86.9961 -18.0988 93.454 -7.45198 103.228C-2.73945 107.417 2.67123 112.304 8.43099 117.715L-38.8689 146.863L-46.374 156.462C-61.3843 132.027 -72.2057 114.748 -73.2529 114.05L-76.22 117.889C-76.3946 117.715 -76.5691 117.715 -76.5691 117.715C-75.1728 119.286 -64.1769 136.914 -49.6902 160.651L-69.2385 185.436L-86.5178 192.941L-84.5979 197.304L-75.5219 193.464L-111.302 238.844L-104.67 244.081L-59.1153 186.308L-40.4397 178.105L-39.3925 177.407C-25.7785 199.748 -10.4191 224.881 2.67123 246.175L-19.146 251.586L-115.142 318.259L-110.255 325.241L-74.8237 300.631L-49.3412 343.916L-35.9017 370.097L-83.5506 378.475C-85.1215 374.461 -89.3104 364.163 -93.6739 353.865C-105.542 326.288 -107.288 325.939 -109.033 325.59L-109.906 330.128C-110.43 330.128 -110.604 329.779 -110.604 329.779C-108.161 332.048 -97.5137 356.134 -88.2632 378.999L-120.553 384.758L-119.68 389.471L-86.8669 383.711L-82.6779 406.576L-57.3699 425.6L-80.2344 511.822L-75.5219 513.044L-53.0065 427.869L12.4454 454.05L10.7 463.301L-48.643 588.444L-44.2795 590.539L15.238 464.871L16.8088 455.97L48.5748 468.537C22.5686 508.855 -14.7826 574.83 -16.877 578.67L-12.6881 581.114C-11.99 579.892 54.5091 462.079 72.1374 443.927C63.7596 459.286 57.4762 471.853 53.9855 481.103C28.6774 521.422 -2.91399 577.449 -4.83391 580.939L-0.645 583.383C-0.295923 582.685 26.4084 535.385 50.4947 496.114C50.1456 500.652 49.622 505.364 48.9239 509.902C46.4803 530.672 44.2113 550.221 52.0655 561.74C60.967 574.481 107.394 625.621 109.314 627.716L117.343 620.385C116.819 619.861 69.3448 567.674 60.967 555.457C55.3818 547.428 57.4762 528.927 59.5707 511.124C60.2688 505.364 60.967 499.604 61.3161 493.845C61.8397 486.863 70.7411 468.711 82.0861 447.941C83.1333 446.719 84.1806 445.672 84.8787 444.974C96.0492 435.025 138.462 396.801 169.006 367.304C170.752 371.493 171.973 374.635 172.322 376.555C173.544 382.838 165.166 418.095 158.534 446.545C144.571 505.888 138.462 534.861 143 543.239C144.396 546.032 148.236 552.14 153.298 560.518L115.074 601.186L118.565 604.502L156.439 564.533C166.912 581.288 181.398 604.502 193.965 624.399C190.998 627.716 189.078 629.81 188.554 630.159C188.554 630.159 188.554 630.159 188.729 630.159L191.522 634.173C191.871 633.824 193.791 631.904 196.758 628.763C208.626 647.438 218.051 662.274 218.924 663.845L228.175 658.085C227.826 657.736 217.353 641.155 204.437 620.559C221.368 601.884 251.388 568.023 273.729 542.89L322.251 586.35C306.542 604.676 282.107 632.428 279.314 634.173C279.314 634.173 279.489 633.999 279.663 633.999L281.06 638.711C282.107 638.362 283.329 638.013 305.844 612.531C314.222 602.931 322.6 593.506 325.916 589.492L386.83 644.122L389.971 640.457L353.842 608.167L390.321 572.212L411.44 591.935L416.327 586.699L362.918 536.607L362.744 536.432L331.152 513.393L348.082 496.288L406.902 553.362L410.218 549.871L347.908 489.481L327.138 510.6L293.975 472.377L317.364 457.89L342.846 458.763L357.682 451.432L373.041 443.927L418.072 472.377L420.69 468.362L373.39 438.516L362.394 443.927L411.963 362.767C421.737 388.249 431.337 412.335 431.337 412.684L435.875 410.939C435.7 410.59 424.879 382.838 414.232 355.436C399.047 315.99 395.382 304.471 394.509 301.155L414.581 289.286L436.748 362.068L441.286 360.672L418.77 286.668L462.405 259.964ZM411.614 284.399L361.696 313.896L340.926 287.017L367.456 278.115L376.707 254.902C379.325 256.647 380.896 257.695 381.245 258.044C382.99 259.091 399.571 273.752 411.614 284.399ZM372.867 252.284L363.965 274.45L333.072 284.748L357.507 316.688L351.224 320.354L326.614 335.015L326.09 335.364L317.887 347.233L298.688 354.563L294.499 357.181L263.257 263.978C276.522 251.237 289.787 239.892 301.132 233.085C308.462 228.721 314.222 223.136 318.934 216.853C332.025 225.23 358.904 243.033 372.867 252.284ZM186.809 350.2C193.965 342.869 199.376 337.109 201.47 333.968C208.452 323.495 233.411 293.126 259.591 267.294L290.485 359.276L217.877 403.783L186.809 350.2ZM18.5542 420.015L-16.877 400.641L-14.0844 393.66L20.4741 409.194L18.5542 420.015ZM21.8704 401.863L21.5214 404.132L-12.1645 388.947L-9.19737 381.268L22.5686 387.027L21.8704 401.863ZM-4.65937 369.748C6.51107 370.621 18.5542 372.192 23.2667 373.937L22.9177 382.14L-7.27744 376.73L-4.65937 369.748ZM10.1764 366.432C4.94023 365.734 -0.295923 365.21 -3.26307 365.036L1.97307 335.713L25.0121 340.426L23.6158 369.224C20.6487 368.177 16.4598 367.304 10.1764 366.432ZM34.6117 246.524L100.413 229.419C101.46 231.688 102.682 233.783 103.729 236.052L102.507 246.175L64.4578 280.908C51.5419 278.988 37.5789 276.719 33.0409 275.672L34.6117 246.524ZM36.7062 192.941C36.5316 192.766 27.6302 181.596 18.3797 170.774C12.969 164.317 8.60552 159.255 5.46384 155.59C3.71846 153.495 2.32215 151.924 1.10038 150.877L26.0593 134.645C50.3202 158.208 76.85 186.483 90.4639 211.093C92.3839 214.584 94.3038 218.249 96.2237 221.74L35.1353 237.623L37.4043 193.639L36.7062 192.941ZM263.606 140.23C258.021 139.532 245.279 137.961 241.963 137.438C241.614 137.089 241.265 136.39 240.741 135.518L266.573 114.224L263.606 140.23ZM240.567 142.15C242.836 142.499 259.941 144.594 263.082 144.943L259.941 170.425L249.643 178.629L240.567 169.727L194.489 191.894L185.413 178.28L191.347 176.36L237.251 138.485C238.821 141.801 239.869 141.976 240.567 142.15ZM152.076 217.725L170.577 240.764L164.468 245.477L143.524 223.31L152.076 217.725ZM174.417 237.797L156.439 215.282L192.569 198.002L203.739 214.584L174.417 237.797ZM151.378 212.315L115.947 236.052C114.027 232.212 112.107 228.547 110.187 224.707L168.657 183.516L180.177 179.85L189.776 193.988L151.378 212.315ZM139.684 226.103L160.803 248.619L132.179 271.134C131.48 270.087 131.131 269.039 130.782 268.516C126.942 259.44 122.754 250.015 118.216 240.415L139.684 226.103ZM164.119 252.109L164.992 252.982L165.166 253.157L215.957 291.729C201.47 307.962 189.951 322.448 185.587 329.081C183.667 332.048 178.431 337.633 171.275 344.964C159.581 320.877 142.651 289.81 134.622 275.323L164.119 252.109ZM219.099 288.239L168.483 249.666L167.959 249.142L225.731 203.588L254.006 252.458C242.138 263.629 229.92 276.196 219.099 288.239ZM207.579 211.616L196.932 195.908L239.345 175.487L245.628 181.596L207.579 211.616ZM186.984 168.855L180.177 170.949L167.086 151.575C187.682 140.056 209.499 128.013 228.175 117.715C230.095 123.126 231.84 127.314 233.236 130.631L186.984 168.855ZM175.464 172.52L164.992 175.836L106.347 217.202C104.252 213.362 102.333 209.522 100.238 205.857C97.9691 201.842 95.5255 197.828 92.7329 193.639C100.762 188.752 129.91 172.345 162.897 154.019L175.464 172.52ZM158.708 150.877C111.059 177.407 95.351 186.483 89.9403 189.625C84.5296 181.945 78.4208 174.265 71.7884 166.411L133.051 109.686L160.105 149.83C159.756 150.354 159.232 150.528 158.708 150.877ZM107.743 243.906C112.805 254.204 117.168 264.327 121.183 273.577L111.932 291.38L103.903 335.888L96.5728 340.251L107.743 243.906ZM146.491 320.528C152.6 332.222 158.534 343.567 163.072 353.167C146.665 369.224 124.324 389.995 105.474 407.274C107.394 403.958 109.14 400.816 111.059 397.674C132.004 361.37 144.92 338.855 146.491 330.477C146.84 327.684 146.84 324.368 146.491 320.528ZM173.37 349.676C181.398 341.647 187.158 335.364 189.427 331.873C197.107 320.179 226.953 284.399 256.101 257.171L257.846 262.407C230.618 288.937 204.612 320.528 197.281 331.35C194.663 335.364 186.46 343.742 175.639 354.563C174.94 352.992 174.242 351.247 173.37 349.676ZM310.382 103.228C323.472 117.889 333.247 152.797 334.294 156.637C334.119 161 331.501 208.649 298.688 228.547C287.692 235.354 274.602 246.175 261.686 258.567L259.941 253.506C270.238 244.081 280.362 235.877 289.263 230.641C325.741 208.475 327.138 156.462 327.138 154.368V154.019V153.67C326.789 152.099 316.665 114.224 302.179 97.992C298.513 93.8031 297.815 83.8544 300.259 70.0659L307.415 71.1132C304.448 86.9961 305.495 97.8175 310.382 103.228ZM73.3592 87.6943L118.739 29.0494C144.047 46.1542 165.864 60.9899 166.214 61.1645L191.347 78.2692L234.632 80.1891L273.38 66.4006L295.197 69.5423C292.405 85.2507 293.452 95.8976 298.339 101.308C311.429 115.969 321.203 150.877 322.251 154.717C322.076 159.08 319.458 206.729 286.645 226.627C277.918 232.037 267.795 239.892 257.672 249.142L229.571 200.446L264.304 173.043L271.984 109.686L273.38 108.464L276.696 90.3124L268.318 88.7415L265.526 103.926L237.251 127.489C235.505 123.3 233.585 118.238 231.84 113.526L230.967 110.908L228.524 112.304C228.175 112.479 197.107 129.583 164.643 147.735L134.098 102.53L68.8212 162.92C54.8582 147.037 38.9752 131.503 24.663 117.715L73.3592 87.6943ZM-33.2836 153.146L14.7144 123.649C17.3324 126.093 19.9505 128.536 22.5686 131.154L-37.8216 170.425C-39.2179 168.156 -40.4397 166.062 -41.836 163.967L-33.2836 153.146ZM-42.7087 173.567L-52.8319 177.931L-44.9777 167.982C-43.9305 169.727 -42.8832 171.298 -41.836 173.043L-42.7087 173.567ZM-35.2036 174.614L-2.91399 153.67C1.97308 158.382 20.4741 180.723 32.3427 195.384L30.0737 239.019L7.38377 244.953C-6.75383 221.391 -21.9387 196.432 -35.2036 174.614ZM29.7246 247.746L25.1867 335.539L-0.12138 330.477L-18.0988 334.317L-5.53206 295.918L-18.6224 261.709L-15.4807 259.614L29.7246 247.746ZM-22.6368 264.501L-10.5937 295.918L-23.5095 335.364L-46.0249 340.077L-70.8093 297.838L-22.6368 264.501ZM-43.5814 344.44L-3.08852 335.888L-8.32467 365.21L-30.8401 369.224L-43.5814 344.44ZM-82.1543 383.013L-35.029 374.81L-38.1707 395.405L-55.1009 421.411L-78.14 404.132L-82.1543 383.013ZM-50.912 423.68L-33.6327 397.151L-29.9674 373.937L-9.89552 370.446L-22.8113 402.736L17.6815 424.902L13.3181 449.163L-50.912 423.68ZM26.583 402.736L28.1538 373.588L29.3756 373.064C29.201 372.541 28.852 372.017 28.1538 371.493L29.8992 336.935V336.586L30.5973 321.75L63.4105 327.335L64.2832 322.623L30.9464 317.038L32.8663 280.734C37.4043 281.781 46.4803 283.352 64.9814 285.97L66.0286 286.144L101.634 253.68L90.9876 344.265L36.8807 426.298L31.2955 456.319L17.8561 450.908L26.583 402.736ZM70.2175 439.04C66.3777 442.53 59.5707 451.956 51.3674 464.348L35.8335 458.064L41.5933 427.869L95.1765 346.534L108.092 338.68L116.296 292.777L123.452 279.337C132.528 302.202 137.24 320.179 135.669 328.382C134.448 335.189 116.994 365.385 101.634 392.089C93.6056 406.052 86.1005 418.968 79.6426 430.662C75.4537 434.327 72.312 437.294 70.2175 439.04ZM90.1149 433.978C92.5584 429.615 95.0019 425.251 97.4455 420.888C117.692 402.387 145.269 377.079 165.166 357.705C166.039 359.45 166.737 361.021 167.435 362.592C141.953 387.027 107.22 418.619 90.1149 433.978ZM153.123 538.003C152.774 536.781 151.901 531.37 156.788 506.586C159.93 490.878 164.294 471.678 168.832 452.828L199.55 458.413L200.423 453.701L170.053 448.29C179.478 407.797 185.238 382.664 183.667 374.635C183.144 371.493 181.049 366.083 178.082 359.45C179.304 358.229 180.526 357.007 181.747 355.96L216.655 416.35L239.694 420.539L262.384 446.719L162.025 552.49C157.487 545.333 154.345 540.272 153.123 538.003ZM244.756 471.504L289.612 517.058C284.376 522.993 278.791 529.276 273.031 535.734L224.858 492.448L244.756 471.504ZM201.47 616.021C188.729 595.775 174.068 572.561 164.119 556.504L221.368 496.114L269.715 539.399C244.756 567.674 217.353 598.568 201.47 616.021ZM321.902 515.487L357.856 541.668L386.655 568.547L350.177 604.676L276.871 539.05C284.201 530.672 290.485 523.691 295.023 518.629L296.594 516.884L248.421 468.013L265.351 450.036L321.902 515.138V515.487ZM270.238 444.974L288.39 428.742L312.477 454.399L290.31 468.188L270.238 444.974ZM341.45 453.526L317.538 452.654L288.914 422.11L267.271 441.309L243.185 413.557L221.019 409.543L220.146 408.146L300.957 358.578L321.203 350.898L329.581 338.68L353.318 324.717L384.91 396.976L354.017 447.418L341.45 453.526ZM409.52 356.483L387.877 391.914L357.333 322.274L389.797 303.074C389.971 303.773 390.146 304.471 390.495 305.169C391.542 308.136 392.939 312.5 395.033 318.085C398.524 327.335 403.411 340.251 409.52 356.483ZM262.733 374.984L258.719 377.602L239.694 347.233L243.708 344.615L262.733 374.984ZM306.193 205.158L280.885 181.247L290.834 154.542L295.372 156.288L286.47 180.025L309.335 201.668L306.193 205.158Z" fill="white"/>
</svg>
