<svg width="256" height="274" viewBox="0 0 256 274" fill="none" xmlns="http://www.w3.org/2000/svg">
<path fill-rule="evenodd" clip-rule="evenodd" d="M0 8.4C0 3.756 3.756 0 8.4 0C13.044 0 16.8 3.756 16.8 8.4C16.8 14.7 8.4 24 8.4 24C8.4 24 0 14.7 0 8.4ZM8.39982 2.40009C5.08782 2.40009 2.39982 5.08808 2.39982 8.40008C2.39982 11.8201 5.90382 17.0521 8.39982 20.2561C10.9438 17.0281 14.3998 11.8561 14.3998 8.40008C14.3998 5.08808 11.7118 2.40009 8.39982 2.40009Z" fill="#EC1C24"/>
<path d="M2 12L8.5 22.5L9.5 20L13.5 15.5L14.5 8.5V6L13.5 4L11.5 2.5L8 2L2 4V12Z" fill="#EC1C24"/>
<path fill-rule="evenodd" clip-rule="evenodd" d="M239 75.4C239 70.756 242.756 67 247.4 67C252.044 67 255.8 70.756 255.8 75.4C255.8 81.7 247.4 91 247.4 91C247.4 91 239 81.7 239 75.4ZM247.4 69.4001C244.088 69.4001 241.4 72.0881 241.4 75.4001C241.4 78.8201 244.904 84.0521 247.4 87.2561C249.944 84.0281 253.4 78.8561 253.4 75.4001C253.4 72.0881 250.712 69.4001 247.4 69.4001Z" fill="#00A94A"/>
<path d="M241 79L247.5 89.5L248.5 87L252.5 82.5L253.5 75.5V73L252.5 71L250.5 69.5L247 69L241 71V79Z" fill="#00A94A"/>
<path fill-rule="evenodd" clip-rule="evenodd" d="M19 258.4C19 253.756 22.756 250 27.4 250C32.044 250 35.8 253.756 35.8 258.4C35.8 264.7 27.4 274 27.4 274C27.4 274 19 264.7 19 258.4ZM27.3998 252.4C24.0878 252.4 21.3998 255.088 21.3998 258.4C21.3998 261.82 24.9038 267.052 27.3998 270.256C29.9438 267.028 33.3998 261.856 33.3998 258.4C33.3998 255.088 30.7118 252.4 27.3998 252.4Z" fill="#FF7811"/>
<path d="M21 262L27.5 272.5L28.5 270L32.5 265.5L33.5 258.5V256L32.5 254L30.5 252.5L27 252L21 254V262Z" fill="#FF7811"/>
<path d="M32.613 171.617H48.313C51.3628 171.617 53.6318 170.982 55.12 169.714C56.6083 168.421 57.3524 166.627 57.3524 164.334V164.224C57.3524 162.638 57.0597 161.284 56.4741 160.162C55.8886 159.04 54.9858 158.186 53.7659 157.6C52.5461 156.99 51.0334 156.685 49.228 156.685H32.613V148.488H49.228C51.6433 148.488 53.4854 147.902 54.7541 146.731C56.0227 145.56 56.6571 143.864 56.6571 141.644C56.6571 139.448 55.9861 137.789 54.6443 136.667C53.3024 135.52 51.3262 134.947 48.7156 134.947H32.613V126.676H49.5573C52.9974 126.676 55.9008 127.262 58.2673 128.433C60.6583 129.579 62.4516 131.226 63.6471 133.373C64.867 135.52 65.4769 138.094 65.4769 141.095C65.4769 143.047 65.0865 144.828 64.3058 146.438C63.5495 148.024 62.415 149.354 60.9023 150.427C59.414 151.501 57.5842 152.233 55.4128 152.623C57.6574 152.94 59.5848 153.684 61.1951 154.856C62.8053 156.002 64.0374 157.478 64.8914 159.284C65.7453 161.065 66.1722 163.065 66.1722 165.286V165.395C66.1722 168.348 65.5257 170.922 64.2326 173.117C62.9639 175.289 61.1219 176.96 58.7065 178.131C56.3155 179.302 53.4732 179.888 50.1795 179.888H32.613V171.617ZM28.2214 126.676H36.9315V179.888H28.2214V126.676Z" fill="#177CA0"/>
<path d="M121.639 149.549H139.974C141.194 149.549 142.267 149.256 143.194 148.671C144.146 148.061 144.878 147.207 145.39 146.109C145.903 145.011 146.171 143.73 146.195 142.266C146.195 140.827 145.939 139.558 145.427 138.46C144.914 137.362 144.183 136.521 143.231 135.935C142.304 135.325 141.218 135.02 139.974 135.02H121.639V126.639H140.23C143.231 126.639 145.866 127.286 148.135 128.579C150.404 129.872 152.161 131.702 153.405 134.069C154.674 136.435 155.308 139.168 155.308 142.266C155.308 145.389 154.674 148.134 153.405 150.501C152.161 152.867 150.392 154.697 148.098 155.99C145.829 157.283 143.207 157.93 140.23 157.93H121.639V149.549ZM118.016 126.639H126.762V179.888H118.016V126.639ZM134.484 156.283L143.56 154.599L157.54 179.888H147.037L134.484 156.283Z" fill="#177CA0"/>
<path d="M203.064 108.456C202.948 108.34 202.718 107.994 202.371 107.417C200.755 104.992 199.254 102.683 197.868 100.489C199.946 96.9093 201.447 93.5609 202.025 92.0599C202.14 91.9444 202.256 91.7135 202.256 91.598C202.948 89.9815 202.487 89.1733 202.256 88.7114C201.794 88.2496 201.216 87.9032 200.524 88.0186C199.715 88.1341 199.023 88.7114 198.676 89.5197C198.445 90.2124 197.291 93.099 195.328 96.4475C191.633 90.097 188.631 84.5547 186.437 79.8207C190.132 75.2022 193.711 70.8145 193.711 64.3486C193.711 58.229 189.67 55.4579 185.629 55.4579C180.664 55.4579 176.738 61.0001 176.738 68.1589C176.738 71.0455 177.893 74.9712 180.202 80.1671C175.353 85.7094 170.503 91.4825 170.503 98.8722C170.503 103.722 171.889 107.417 174.775 109.726C177.546 111.92 181.01 112.266 182.742 112.266C186.899 112.266 190.94 109.841 194.751 104.992C196.136 107.07 197.406 108.918 198.33 110.419C198.792 110.996 199.138 111.573 199.369 112.035C200.062 112.959 200.755 113.305 201.332 113.305C201.678 113.305 202.025 113.074 202.14 113.074C203.41 112.266 203.872 109.841 203.064 108.456ZM186.322 59.6146C189.67 59.6146 189.786 64.1176 189.786 64.2331C189.786 68.0434 187.476 71.6228 184.59 75.3176C183.204 71.7383 182.511 68.8517 182.511 66.6579C182.511 63.7713 183.551 59.6146 186.322 59.6146ZM183.204 106.955C179.625 106.955 177.893 102.798 177.893 98.8722C177.893 92.9836 179.971 88.5959 182.511 84.9011C183.32 86.2867 184.128 87.9032 185.052 89.4042C187.361 93.4454 189.901 97.4866 192.21 101.181C189.67 104.414 186.553 106.955 183.204 106.955Z" fill="#69C0CB"/>
<path d="M181.889 126.676H188.257L208.238 179.888H198.833L185.073 140.253L171.312 179.888H161.907L181.889 126.676ZM171.312 161.406H199.309V169.787H171.312V161.406Z" fill="#177CA0"/>
<path d="M42.2258 113.529C39.3026 113.529 36.7278 112.881 34.5015 111.584C32.2946 110.287 30.5813 108.447 29.3617 106.066C28.142 103.685 27.5322 100.926 27.5322 97.7902V86.2038C27.5322 83.0676 28.142 64.9332 29.3617 62.552C30.5813 60.1709 32.2946 58.3318 34.5015 57.0347C36.7278 55.7183 39.3026 55.0601 42.2258 55.0601C44.6457 55.0601 46.872 55.5828 48.9047 56.6281C50.9374 57.6542 52.6313 59.1158 53.9865 61.013C55.361 62.9102 56.2902 65.1074 56.7742 67.6048H50.7051C50.3373 66.2884 49.7178 65.1171 48.8466 64.0911C47.9948 63.0457 46.9882 62.2423 45.8266 61.6809C44.6651 61.1195 43.4648 60.8388 42.2258 60.8388C40.5028 60.8388 38.9928 61.255 37.6958 62.0874C36.3987 62.9199 35.392 64.0911 34.6757 65.6011C33.9595 67.0918 33.6013 84.2098 33.6013 86.2038V97.7902C33.6013 99.7648 33.9595 101.507 34.6757 103.017C35.392 104.527 36.3987 105.698 37.6958 106.531C38.9928 107.344 40.5028 107.75 42.2258 107.75C43.4842 107.75 44.6844 107.489 45.8266 106.966C46.9882 106.444 47.9948 105.669 48.8466 104.643C49.7178 103.617 50.3373 102.398 50.7051 100.984H56.7742C56.2902 103.482 55.361 105.679 53.9865 107.576C52.612 109.473 50.9084 110.945 48.8757 111.99C46.843 113.016 44.6263 113.529 42.2258 113.529Z" fill="#177CA0"/>
<path d="M76.8121 113.529C73.8695 113.529 71.2754 112.89 69.0297 111.613C66.784 110.316 65.0417 108.496 63.8027 106.153C62.5831 103.792 61.9733 101.062 61.9733 97.9644V86.0005C61.9733 82.903 62.5831 65.5916 63.8027 63.2492C65.0417 60.8873 66.784 59.0676 69.0297 57.7899C71.2754 56.4928 73.8695 55.8443 76.8121 55.8443C79.7547 55.8443 82.3488 56.4928 84.5944 57.7899C86.8401 59.0676 88.5727 60.8873 89.7924 63.2492C91.0313 65.5916 91.6508 82.903 91.6508 86.0005V97.9644C91.6508 101.062 91.0313 103.792 89.7924 106.153C88.5727 108.496 86.8401 110.316 84.5944 111.613C82.3488 112.89 79.7547 113.529 76.8121 113.529ZM76.8121 107.692C78.5544 107.692 80.0838 107.305 81.4002 106.531C82.736 105.737 83.762 104.624 84.4783 103.191C85.2139 101.739 85.5818 100.065 85.5818 98.1677V85.7972C85.5818 83.9 85.2139 67.6437 84.4783 66.2111C83.762 64.7592 82.736 63.646 81.4002 62.8717C80.0838 62.0779 78.5544 61.6811 76.8121 61.6811C75.0697 61.6811 73.5307 62.0779 72.1949 62.8717C70.8785 63.646 69.8525 64.7592 69.1168 66.2111C68.4005 67.6437 68.0424 83.9 68.0424 85.7972V98.1677C68.0424 100.065 68.4005 101.739 69.1168 103.191C69.8525 104.624 70.8785 105.737 72.1949 106.531C73.5307 107.305 75.0697 107.692 76.8121 107.692Z" fill="#177CA0"/>
<path d="M98.2666 55.0601H104.19V113.094H98.2666V84.0768V55.0601ZM101.229 107.46H113.309H125.389V113.094H113.309H101.229V107.46Z" fill="#177CA0"/>
<path d="M146.472 55.0601H151.525L166.636 113.094H160.247L148.998 63.2199L136.842 113.094H130.453L146.472 55.0601ZM137.626 98.1968H159.84V103.83H137.626V98.1968Z" fill="#177CA0"/>
<path d="M97.8389 128.967C96.1335 128.368 94.2899 128.045 92.5385 127.63C91.1557 127.63 89.7269 127.63 88.3442 127.63C88.0216 127.723 87.6989 127.815 87.3763 127.861C83.9656 128.368 80.8314 129.474 78.0199 131.456C69.3549 137.678 66.6355 148.556 71.3368 158.142C71.936 159.387 72.6734 160.539 73.503 161.599L88.6669 179.575L88.8051 179.436C94.1977 174.32 99.5903 169.204 104.983 164.042C105.121 163.904 105.259 163.765 105.398 163.627L105.674 163.351C108.762 160.17 110.744 156.391 111.528 151.92C113.141 142.103 107.287 132.147 97.8389 128.967Z" fill="#69C0CB"/>
<path d="M99.6593 150.904C100.732 145.771 97.4411 140.741 92.3085 139.668C87.1759 138.595 82.1454 141.886 81.0725 147.019C79.9996 152.151 83.2907 157.182 88.4233 158.255C93.5559 159.327 98.5864 156.036 99.6593 150.904Z" fill="#E8F6FB"/>
<path d="M8.3999 5.3999C6.74305 5.3999 5.3999 6.74305 5.3999 8.3999C5.3999 10.0568 6.74305 11.3999 8.3999 11.3999C9.4717 11.3999 10.4621 10.8281 10.998 9.8999C11.5339 8.9717 11.5339 7.82811 10.998 6.8999C10.4621 5.9717 9.4717 5.3999 8.3999 5.3999Z" fill="#E8F6FB"/>
<path d="M247.4 72.3999C245.743 72.3999 244.4 73.743 244.4 75.3999C244.4 77.0568 245.743 78.3999 247.4 78.3999C248.472 78.3999 249.462 77.8281 249.998 76.8999C250.534 75.9717 250.534 74.8281 249.998 73.8999C249.462 72.9717 248.472 72.3999 247.4 72.3999Z" fill="#DFF3FA"/>
<path d="M27.3999 255.4C25.743 255.4 24.3999 256.743 24.3999 258.4C24.3999 260.057 25.743 261.4 27.3999 261.4C28.4717 261.4 29.4621 260.828 29.998 259.9C30.5339 258.972 30.5339 257.828 29.998 256.9C29.4621 255.972 28.4717 255.4 27.3999 255.4V255.4Z" fill="#DFF3FA"/>
<path d="M33.1212 202.281C32.7629 199.692 30.7718 198.19 28.1892 198.19C25.1458 198.19 22.8533 200.409 22.8533 204.175C22.8533 207.935 25.1174 210.159 28.1892 210.159C30.9596 210.159 32.797 208.367 33.1212 206.143L30.9937 206.132C30.7263 207.497 29.6114 208.265 28.2177 208.265C26.329 208.265 24.9751 206.849 24.9751 204.175C24.9751 201.547 26.3177 200.085 28.2233 200.085C29.6398 200.085 30.7491 200.887 30.9937 202.281H33.1212ZM38.7743 210.171C41.3342 210.171 42.9611 208.367 42.9611 205.665C42.9611 202.957 41.3342 201.149 38.7743 201.149C36.2144 201.149 34.5875 202.957 34.5875 205.665C34.5875 208.367 36.2144 210.171 38.7743 210.171ZM38.7857 208.521C37.3692 208.521 36.6752 207.258 36.6752 205.66C36.6752 204.061 37.3692 202.781 38.7857 202.781C40.1794 202.781 40.8734 204.061 40.8734 205.66C40.8734 207.258 40.1794 208.521 38.7857 208.521ZM46.7682 204.88C46.7682 203.617 47.5305 202.889 48.617 202.889C49.6808 202.889 50.3179 203.589 50.3179 204.755V210H52.3772V204.437C52.3829 202.343 51.1883 201.149 49.385 201.149C48.0766 201.149 47.1778 201.774 46.7796 202.747H46.6772V201.262H44.7089V210H46.7682V204.88ZM58.3389 210.171C60.3754 210.171 61.7748 209.175 62.1389 207.656L60.2161 207.44C59.9374 208.18 59.2547 208.566 58.3673 208.566C57.0362 208.566 56.1544 207.69 56.1374 206.194H62.2242V205.563C62.2242 202.497 60.3811 201.149 58.2308 201.149C55.7278 201.149 54.0952 202.986 54.0952 205.682C54.0952 208.424 55.705 210.171 58.3389 210.171ZM56.1431 204.806C56.2056 203.691 57.0305 202.753 58.2592 202.753C59.4425 202.753 60.2389 203.617 60.2502 204.806H56.1431ZM67.7777 210.171C69.9735 210.171 71.3729 208.868 71.5208 207.013H69.5526C69.3762 207.952 68.6993 208.493 67.7948 208.493C66.5091 208.493 65.6786 207.417 65.6786 205.631C65.6786 203.868 66.5262 202.81 67.7948 202.81C68.7846 202.81 69.3933 203.447 69.5526 204.289H71.5208C71.3786 202.394 69.8996 201.149 67.7663 201.149C65.2064 201.149 63.5909 202.997 63.5909 205.665C63.5909 208.31 65.1666 210.171 67.7777 210.171ZM77.5749 201.262H75.8513V199.169H73.792V201.262H72.5519V202.855H73.792V207.713C73.7806 209.357 74.9752 210.165 76.5225 210.119C77.1085 210.102 77.5123 209.989 77.7342 209.915L77.3872 208.305C77.2734 208.333 77.0402 208.384 76.7842 208.384C76.2665 208.384 75.8513 208.202 75.8513 207.372V202.855H77.5749V201.262ZM81.8115 210.176C83.1825 210.176 84.0016 209.534 84.3771 208.8H84.4453V210H86.425V204.152C86.425 201.843 84.542 201.149 82.8753 201.149C81.0379 201.149 79.6271 201.968 79.172 203.56L81.0947 203.834C81.2995 203.236 81.8798 202.724 82.8867 202.724C83.8423 202.724 84.3657 203.213 84.3657 204.072V204.107C84.3657 204.698 83.7456 204.727 82.204 204.892C80.5088 205.074 78.8876 205.58 78.8876 207.548C78.8876 209.266 80.1447 210.176 81.8115 210.176ZM82.3462 208.663C81.4873 208.663 80.8729 208.271 80.8729 207.514C80.8729 206.723 81.5612 206.393 82.4828 206.263C83.0232 206.189 84.104 206.052 84.3714 205.836V206.866C84.3714 207.838 83.5864 208.663 82.3462 208.663ZM90.5549 204.88C90.5549 203.617 91.3172 202.889 92.4037 202.889C93.4675 202.889 94.1046 203.589 94.1046 204.755V210H96.1639V204.437C96.1696 202.343 94.975 201.149 93.1717 201.149C91.8633 201.149 90.9645 201.774 90.5663 202.747H90.4639V201.262H88.4956V210H90.5549V204.88ZM101.5 210.154C103.002 210.154 103.679 209.26 104.003 208.623H104.128V210H106.153V198.35H104.088V202.707H104.003C103.69 202.076 103.047 201.149 101.506 201.149C99.486 201.149 97.8989 202.73 97.8989 205.643C97.8989 208.521 99.4405 210.154 101.5 210.154ZM102.074 208.464C100.715 208.464 99.998 207.269 99.998 205.631C99.998 204.004 100.703 202.838 102.074 202.838C103.4 202.838 104.128 203.936 104.128 205.631C104.128 207.326 103.388 208.464 102.074 208.464ZM112.159 210.171C114.719 210.171 116.346 208.367 116.346 205.665C116.346 202.957 114.719 201.149 112.159 201.149C109.599 201.149 107.972 202.957 107.972 205.665C107.972 208.367 109.599 210.171 112.159 210.171ZM112.17 208.521C110.754 208.521 110.06 207.258 110.06 205.66C110.06 204.061 110.754 202.781 112.17 202.781C113.564 202.781 114.258 204.061 114.258 205.66C114.258 207.258 113.564 208.521 112.17 208.521ZM129.872 201.262H127.682L125.668 207.753H125.577L123.569 201.262H121.373L124.485 210H126.76L129.872 201.262ZM134.811 210.171C137.371 210.171 138.998 208.367 138.998 205.665C138.998 202.957 137.371 201.149 134.811 201.149C132.251 201.149 130.624 202.957 130.624 205.665C130.624 208.367 132.251 210.171 134.811 210.171ZM134.822 208.521C133.406 208.521 132.712 207.258 132.712 205.66C132.712 204.061 133.406 202.781 134.822 202.781C136.216 202.781 136.91 204.061 136.91 205.66C136.91 207.258 136.216 208.521 134.822 208.521ZM142.805 198.35H140.746V210H142.805V198.35ZM150.492 206.325C150.492 207.656 149.542 208.316 148.631 208.316C147.642 208.316 146.982 207.616 146.982 206.507V201.262H144.922V206.826C144.922 208.925 146.117 210.114 147.835 210.114C149.143 210.114 150.065 209.425 150.463 208.447H150.554V210H152.551V201.262H150.492V206.325ZM156.728 204.88C156.728 203.617 157.49 202.889 158.577 202.889C159.64 202.889 160.277 203.589 160.277 204.755V210H162.337V204.437C162.342 202.343 161.148 201.149 159.344 201.149C158.036 201.149 157.137 201.774 156.739 202.747H156.637V201.262H154.668V210H156.728V204.88ZM168.793 201.262H167.07V199.169H165.01V201.262H163.77V202.855H165.01V207.713C164.999 209.357 166.194 210.165 167.741 210.119C168.327 210.102 168.731 209.989 168.953 209.915L168.606 208.305C168.492 208.333 168.259 208.384 168.003 208.384C167.485 208.384 167.07 208.202 167.07 207.372V202.855H168.793V201.262ZM173.03 210.176C174.401 210.176 175.22 209.534 175.595 208.8H175.664V210H177.643V204.152C177.643 201.843 175.76 201.149 174.094 201.149C172.256 201.149 170.845 201.968 170.39 203.56L172.313 203.834C172.518 203.236 173.098 202.724 174.105 202.724C175.061 202.724 175.584 203.213 175.584 204.072V204.107C175.584 204.698 174.964 204.727 173.422 204.892C171.727 205.074 170.106 205.58 170.106 207.548C170.106 209.266 171.363 210.176 173.03 210.176ZM173.565 208.663C172.706 208.663 172.091 208.271 172.091 207.514C172.091 206.723 172.78 206.393 173.701 206.263C174.242 206.189 175.322 206.052 175.59 205.836V206.866C175.59 207.838 174.805 208.663 173.565 208.663ZM173.394 200.113H174.936L176.682 197.513H174.668L173.394 200.113ZM179.714 210H181.773V204.863C181.773 203.754 182.61 202.969 183.742 202.969C184.089 202.969 184.521 203.031 184.697 203.088V201.194C184.509 201.16 184.185 201.137 183.958 201.137C182.957 201.137 182.12 201.706 181.802 202.719H181.711V201.262H179.714V210ZM186.065 210H188.125V201.262H186.065V210ZM187.101 200.022C187.755 200.022 188.29 199.522 188.29 198.907C188.29 198.287 187.755 197.787 187.101 197.787C186.441 197.787 185.906 198.287 185.906 198.907C185.906 199.522 186.441 200.022 187.101 200.022ZM194.054 210.171C196.613 210.171 198.24 208.367 198.24 205.665C198.24 202.957 196.613 201.149 194.054 201.149C191.494 201.149 189.867 202.957 189.867 205.665C189.867 208.367 191.494 210.171 194.054 210.171ZM194.065 208.521C192.648 208.521 191.954 207.258 191.954 205.66C191.954 204.061 192.648 202.781 194.065 202.781C195.459 202.781 196.153 204.061 196.153 205.66C196.153 207.258 195.459 208.521 194.065 208.521ZM206.894 203.572C206.61 202.093 205.427 201.149 203.379 201.149C201.274 201.149 199.84 202.184 199.846 203.799C199.84 205.074 200.625 205.916 202.303 206.263L203.794 206.575C204.596 206.752 204.971 207.076 204.971 207.571C204.971 208.168 204.323 208.618 203.344 208.618C202.4 208.618 201.786 208.208 201.609 207.423L199.601 207.616C199.857 209.221 201.206 210.171 203.35 210.171C205.535 210.171 207.076 209.039 207.082 207.383C207.076 206.137 206.274 205.375 204.624 205.017L203.134 204.698C202.247 204.499 201.894 204.192 201.9 203.686C201.894 203.094 202.548 202.684 203.407 202.684C204.357 202.684 204.858 203.202 205.017 203.777L206.894 203.572Z" fill="#177CA0"/>
</svg>
